<?xml version="1.0" encoding="iso-8859-1"?>
<!-- Uploaded to: SVG Repo, www.svgrepo.com, Generator: SVG Repo Mixer Tools -->
<svg version="1.1" id="Layer_1" xmlns="http://www.w3.org/2000/svg" xmlns:xlink="http://www.w3.org/1999/xlink" 
	 viewBox="0 0 512 512" xml:space="preserve">
<path style="fill:#E9EDF1;" d="M451.952,431.128H60.048C27.024,431.128,0,404.104,0,371.072V66.536
	C0,33.504,27.024,6.48,60.048,6.48h391.896C484.976,6.48,512,33.504,512,66.536V371.08C512,404.104,484.976,431.128,451.952,431.128
	z"/>
<path d="M512,100.992V66.536c0-33.032-27.024-60.048-60.048-60.048H60.048C27.024,6.48,0,33.504,0,66.536v34.456
	C0,100.992,512,100.992,512,100.992z"/>
<circle style="fill:#FC6F58;" cx="58.4" cy="53.736" r="13.424"/>
<circle style="fill:#49C3E8;" cx="96.64" cy="53.736" r="13.424"/>
<circle style="fill:#FFD160;" cx="134.904" cy="53.736" r="13.424"/>
<g>
	<rect x="429.392" y="49.976" style="fill:#FFFFFF;" width="30.416" height="6.824"/>
	<polygon style="fill:#FFFFFF;" points="450.872,73.888 445.728,69.408 459.376,53.736 445.728,38.064 450.872,33.584 
		468.448,53.736 	"/>
	<path style="fill:#FFFFFF;" d="M379.264,75.104H208.336c-11.752,0-21.368-9.616-21.368-21.368l0,0
		c0-11.752,9.616-21.368,21.368-21.368h170.928c11.752,0,21.368,9.616,21.368,21.368l0,0
		C400.632,65.488,391.016,75.104,379.264,75.104z"/>
</g>
<path d="M212.656,63.96l-4.704-19.24h3.744l1.824,8.736c0.48,2.344,0.936,4.8,1.256,6.704h0.056c0.32-2.024,0.856-4.304,1.4-6.736
	l2.08-8.704h3.68l1.92,8.856c0.48,2.28,0.88,4.424,1.16,6.504h0.064c0.336-2.12,0.8-4.304,1.304-6.656l2-8.704h3.576l-5.176,19.24
	h-3.76l-2-9.056c-0.488-2.184-0.824-4.008-1.048-6.104h-0.064c-0.336,2.056-0.704,3.92-1.28,6.104l-2.224,9.056H212.656z"/>
<path d="M237.712,63.96l-4.704-19.24h3.744l1.824,8.736c0.48,2.344,0.936,4.8,1.256,6.704h0.056c0.32-2.024,0.856-4.304,1.4-6.736
	l2.08-8.704h3.68l1.92,8.856c0.48,2.28,0.88,4.424,1.16,6.504h0.064c0.336-2.12,0.8-4.304,1.304-6.656l2-8.704h3.576l-5.176,19.24
	h-3.76l-2-9.056c-0.488-2.184-0.824-4.008-1.048-6.104h-0.064c-0.336,2.056-0.704,3.92-1.28,6.104l-2.224,9.056H237.712z"/>
<path d="M262.768,63.96l-4.704-19.24h3.744l1.824,8.736c0.48,2.344,0.936,4.8,1.256,6.704h0.056c0.32-2.024,0.856-4.304,1.4-6.736
	l2.08-8.704h3.68l1.92,8.856c0.48,2.28,0.88,4.424,1.16,6.504h0.064c0.336-2.12,0.8-4.304,1.304-6.656l2-8.704h3.576l-5.168,19.24
	h-3.76l-2-9.056c-0.496-2.184-0.832-4.008-1.056-6.104h-0.064c-0.336,2.056-0.704,3.92-1.28,6.104l-2.224,9.056H262.768z"/>
<path d="M282.064,62.016c0-1.304,0.92-2.256,2.176-2.256c1.28,0,2.176,0.92,2.176,2.256c0,1.296-0.864,2.264-2.176,2.264
	C282.96,64.28,282.064,63.304,282.064,62.016z"/>
<polygon style="fill:#32BEA6;" points="418.16,396.872 256,505.52 93.84,396.872 256,288.224 "/>
<polygon style="fill:#FC6F58;" points="418.16,321.608 256,430.256 93.84,321.608 256,212.968 "/>
<polygon style="fill:#49C3E8;" points="418.16,246.352 256,354.992 93.84,246.352 256,137.704 "/>
</svg>