<?xml version="1.0" encoding="iso-8859-1"?>
<!-- Uploaded to: SVG Repo, www.svgrepo.com, Generator: SVG Repo Mixer Tools -->
<svg version="1.1" id="Layer_1" xmlns="http://www.w3.org/2000/svg" xmlns:xlink="http://www.w3.org/1999/xlink" 
	 viewBox="0 0 512.032 512.032" xml:space="preserve">
<path style="fill:#E9EDF1;" d="M451.968,424.648H60.064c-33.024,0-60.048-27.024-60.048-60.056V60.048
	C0.016,27.024,27.04,0,60.064,0H451.96c33.032,0,60.056,27.024,60.056,60.048v304.544
	C512.016,397.624,484.992,424.648,451.968,424.648z"/>
<path d="M512.016,94.512V60.056C512.016,27.024,484.992,0,451.968,0H60.064C27.04,0,0.016,27.024,0.016,60.056v34.456H512.016z"/>
<circle style="fill:#FC6F58;" cx="58.416" cy="47.256" r="13.424"/>
<circle style="fill:#49C3E8;" cx="96.656" cy="47.256" r="13.424"/>
<circle style="fill:#FFD160;" cx="134.92" cy="47.256" r="13.424"/>
<g>
	<rect x="429.408" y="43.488" style="fill:#FFFFFF;" width="30.4" height="6.824"/>
	<polygon style="fill:#FFFFFF;" points="450.896,67.408 445.744,62.928 459.4,47.248 445.744,31.584 450.896,27.104 468.464,47.248 
			"/>
	<path style="fill:#FFFFFF;" d="M379.28,68.624H208.352c-11.752,0-21.368-9.616-21.368-21.368l0,0
		c0-11.752,9.616-21.368,21.368-21.368H379.28c11.752,0,21.368,9.616,21.368,21.368l0,0
		C400.648,59.008,391.032,68.624,379.28,68.624z"/>
</g>
<path d="M212.68,57.48l-4.704-19.24h3.744l1.824,8.736c0.48,2.344,0.936,4.8,1.256,6.704h0.056c0.32-2.024,0.856-4.304,1.4-6.736
	l2.08-8.704h3.68l1.92,8.856c0.48,2.272,0.88,4.424,1.16,6.504h0.064c0.336-2.12,0.8-4.304,1.304-6.656l2-8.704h3.576l-5.176,19.24
	h-3.76l-2-9.056c-0.496-2.184-0.824-4.016-1.056-6.104h-0.064c-0.336,2.056-0.704,3.92-1.28,6.104l-2.224,9.056
	C216.48,57.48,212.68,57.48,212.68,57.48z"/>
<path d="M237.736,57.48l-4.712-19.24h3.744l1.824,8.736c0.48,2.344,0.936,4.8,1.256,6.704h0.056c0.32-2.024,0.856-4.304,1.4-6.736
	l2.08-8.704h3.68l1.92,8.856c0.48,2.28,0.88,4.424,1.16,6.504h0.064c0.336-2.12,0.8-4.304,1.304-6.656l2-8.704h3.576l-5.176,19.24
	h-3.76l-2-9.056c-0.496-2.184-0.824-4.016-1.056-6.104h-0.064c-0.336,2.056-0.704,3.92-1.28,6.104l-2.216,9.056H237.736z"/>
<path d="M262.792,57.48l-4.712-19.24h3.744l1.824,8.736c0.48,2.344,0.936,4.8,1.256,6.704h0.056c0.32-2.024,0.856-4.304,1.4-6.736
	l2.08-8.704h3.68l1.92,8.856c0.48,2.28,0.88,4.424,1.16,6.504h0.064c0.336-2.12,0.8-4.304,1.304-6.656l2-8.704h3.576l-5.168,19.24
	h-3.76l-2-9.056c-0.496-2.184-0.824-4.016-1.056-6.104h-0.064c-0.336,2.056-0.704,3.92-1.28,6.104l-2.224,9.056H262.792z"/>
<path d="M282.08,55.528c0-1.304,0.92-2.256,2.176-2.256c1.28,0,2.176,0.92,2.176,2.256c0,1.296-0.864,2.264-2.176,2.264
	C282.976,57.8,282.08,56.824,282.08,55.528z"/>
<path d="M255.72,499.384L96.432,407.432V223.488L255.72,131.52l159.288,91.968v183.944L255.72,499.384z M110.088,399.536
	l145.632,84.088l145.632-84.088V231.384L255.72,147.28l-145.632,84.104V399.536z"/>
<path d="M255.72,416.088l-87.152-50.312V265.128l87.152-50.312l87.152,50.312v100.648L255.72,416.088z M182.224,357.88l73.496,42.44
	l73.496-42.44v-84.856l-73.496-42.44l-73.496,42.44C182.224,273.024,182.224,357.88,182.224,357.88z"/>
<g>
	<circle style="fill:#FC6F58;" cx="408.176" cy="402.4" r="19.872"/>
	<circle style="fill:#FC6F58;" cx="103.264" cy="227.096" r="19.872"/>
	<circle style="fill:#FC6F58;" cx="408.176" cy="227.096" r="19.872"/>
	<circle style="fill:#FC6F58;" cx="103.264" cy="402.4" r="19.872"/>
	<circle style="fill:#FC6F58;" cx="255.72" cy="314.48" r="19.872"/>
	<circle style="fill:#FC6F58;" cx="255.72" cy="136.72" r="19.872"/>
	<circle style="fill:#FC6F58;" cx="255.72" cy="492.16" r="19.872"/>
</g>
</svg>